<svg id="Capa_1" enable-background="new 0 0 511.875 511.875" height="512" viewBox="0 0 511.875 511.875" width="512" xmlns="http://www.w3.org/2000/svg"><g><g><path d="m255.312 69.067c-7.331-9.144-18.587-15.005-31.218-15.005h-64.875v21.545c-19.374 9.95-32.639 30.116-32.639 53.393v55.257h186.076v-55.257c0-32.246-25.441-58.542-57.344-59.933z" fill="#fff6bb"/><path d="m255.312 69.067c-7.331-9.144-18.587-15.005-31.218-15.005h-64.875v20h64.875c6.094 0 11.785 2.739 15.614 7.515l5.673 7.076 9.061.395c21.43.934 38.216 18.483 38.216 39.952v55.257h20v-55.257c-.002-32.246-25.443-58.542-57.346-59.933z" fill="#ffc472"/><path d="m255.932 312.821c-1.227.113-2.468.179-3.724.179h-65.256c-1.205 0-2.395-.063-3.573-.167v27.596h-72.704c-.153 0-.304.011-.457.012h.001c21.5 38.187 62.415 63.984 109.361 63.984 26.75 0 51.535-8.385 71.892-22.656v-41.339h-35.541v-27.609z" fill="#ffcfc5"/><path d="m271.473 340.429v52.771c7.038-3.206 13.73-7.037 20-11.433v-41.339h-20z" fill="#ff9f87"/><path d="m84.035 459.375v25c0 11.046-8.954 20-20 20h247.438c-11.046 0-20-8.954-20-20v-102.607c-20.358 14.271-45.142 22.656-71.892 22.656-46.946 0-87.86-25.797-109.361-63.984-21.224.131-40.291 9.354-53.501 23.97l18.754 55.027h8.562c8.284 0 15 6.716 15 15v9.938c0 8.284-6.715 15-15 15z" fill="#ff91a7"/><path d="m291.473 484.375v-102.607c-6.27 4.395-12.962 8.227-20 11.433v91.175c0 11.046 8.954 20 20 20h20c-11.046-.001-20-8.955-20-20.001z" fill="#ff5477"/><path d="m259.656 144.257v-15.257h-60.437c-7.057 0-13.682-1.834-19.438-5.041v20.298c0 19.642-14.161 35.965-32.829 39.346v48.884c0 .528.029 1.05.04 1.575h57.667c.034 8.255 6.734 14.938 14.997 14.938s14.963-6.682 14.997-14.938h57.515c.011-.526.04-1.047.04-1.575v-48.933c-18.53-3.492-32.552-19.752-32.552-39.297z" fill="#ffcfc5"/><g fill="#ff9f87"><path d="m259.656 144.257v-15.257h-20v27.257c0 19.545 14.022 35.805 32.552 39.297v36.933c0 .528-.029 1.05-.04 1.575h20c.011-.526.04-1.047.04-1.575v-48.933c-18.53-3.492-32.552-19.752-32.552-39.297z"/><path d="m146.953 221.694h-15.593c-10.338 0-18.719-8.381-18.719-18.719 0-10.338 8.381-18.719 18.719-18.719h15.593z"/><path d="m292.208 184.257h16.026c10.338 0 18.719 8.381 18.719 18.719 0 10.338-8.381 18.719-18.719 18.719h-16.026z"/></g><path d="m234.653 234.062c-.034 8.255-6.734 14.938-14.997 14.938s-14.963-6.682-14.997-14.938h-57.707v38.938c0 22.091 17.909 40 40 40h65.256c22.091 0 40-17.909 40-40v-38.938z" fill="#fff6bb"/><path d="m272.208 234.062v38.938c0 22.091-17.909 40-40 40h20c22.091 0 40-17.909 40-40v-38.938z" fill="#ffc472"/><path d="m483.91 504.375h-172.437c-11.046 0-20-8.954-20-20v-148.375c0-11.046 8.954-20 20-20h172.437c11.046 0 20 8.954 20 20v148.375c0 11.046-8.954 20-20 20z" fill="#7b797e"/><path d="m483.91 316h-20c11.046 0 20 8.954 20 20v148.375c0 11.046-8.954 20-20 20h20c11.046 0 20-8.954 20-20v-148.375c0-11.046-8.954-20-20-20z" fill="#58565b"/><path d="m446.973 385h-101c-10.77 0-19.5-8.73-19.5-19.5 0-10.77 8.73-19.5 19.5-19.5h101c10.77 0 19.5 8.73 19.5 19.5 0 10.77-8.731 19.5-19.5 19.5z" fill="#58565b"/><path d="m376.473 279h50v37h-50z" fill="#ff91a7"/><path d="m406.473 279h20v37h-20z" fill="#ff5477"/><path d="m29.035 419.438h55c8.284 0 15 6.716 15 15v9.938c0 8.284-6.716 15-15 15v25c0 11.046-8.954 20-20 20h-55v-64.938c0-11.046 8.955-20 20-20z" fill="#ffcfc5"/><path d="m75.473 419.438-39.408.09-27.066-78.695c-3.373-9.809 1.843-20.495 11.652-23.868 9.809-3.373 20.495 1.843 23.868 11.652z" fill="#58565b"/><path d="m358.723 84.667h45v42.396h-45z" fill="#7b797e"/><path d="m381.223 7.5c-23.058 0-41.75 18.692-41.75 41.75 0 14.94 7.853 28.039 19.65 35.417h44.2c11.797-7.377 19.65-20.477 19.65-35.417 0-23.058-18.692-41.75-41.75-41.75z" fill="#fff6bb"/><path d="m381.223 7.5c-3.448 0-6.795.426-10 1.214 18.227 4.482 31.75 20.926 31.75 40.536 0 14.94-7.853 28.039-19.65 35.417h20c11.797-7.377 19.65-20.477 19.65-35.417 0-23.058-18.692-41.75-41.75-41.75z" fill="#ffc472"/></g><g><path d="m180.063 195.069h15.125v15h-15.125z"/><path d="m239.938 195.069h15.125v15h-15.125z"/><path d="m511.41 435.938v-99.938c0-15.164-12.337-27.5-27.5-27.5h-49.938v-37h-65v37h-57.5c-14.125 0-25.792 10.706-27.324 24.429h-20.717v-13.781c20.791-5.058 36.276-23.824 36.276-46.148v-43.806h8.525c14.457 0 26.219-11.762 26.219-26.219 0-10.165-5.818-18.99-14.296-23.339v-50.636c0-9.862-2.082-19.373-6.188-28.267l-13.619 6.288c3.19 6.909 4.808 14.303 4.808 21.979v47.757h-8.517l-3.043-.573c-15.32-2.887-26.44-16.314-26.44-31.927v-41.59h-15v18.833h-52.938c-5.522 0-10.981-1.415-15.787-4.093l-.204-.114c-10.187-5.772-16.509-16.588-16.509-28.294v-27.437h57.375c9.907 0 19.153 4.445 25.367 12.196l2.127 2.653 3.398.148c14.902.65 28.879 7.667 38.35 19.253l11.613-9.493c-11.468-14.031-28.087-22.849-46.002-24.519-8.985-9.725-21.507-15.238-34.853-15.238h-72.375v24.643c-20.246 12.195-32.638 33.936-32.638 57.795v50.819c-8.285 4.411-13.94 13.134-13.94 23.156 0 14.457 11.762 26.219 26.219 26.219h8.093v43.806c0 22.379 15.561 41.18 36.428 46.184v13.746h-65.204c-18.524 0-36.411 6.461-50.624 18.015l-8.441-24.767c-4.713-13.704-19.695-21.017-33.4-16.305-6.638 2.283-11.99 7.015-15.069 13.323s-3.519 13.438-1.235 20.077l23.692 68.887c-13.546 1.698-24.063 13.278-24.063 27.278v72.438h482.374c15.163 0 27.5-12.336 27.5-27.5v-34.376h-15v34.375c0 6.893-5.607 12.5-12.5 12.5h-172.437c-6.893 0-12.5-5.607-12.5-12.5v-148.375c0-6.893 5.607-12.5 12.5-12.5h172.437c6.893 0 12.5 5.607 12.5 12.5v99.938zm-203.176-221.744h-8.525v-22.438h8.525c6.187 0 11.219 5.033 11.219 11.219s-5.033 11.219-11.219 11.219zm-120.953-69.937v-9.283c3.885 1.008 7.9 1.526 11.938 1.526h52.938v7.757c0 20.688 13.363 38.75 32.552 45.09v37.215h-57.524l-.031 7.469c-.017 4.118-3.38 7.469-7.497 7.469s-7.479-3.351-7.497-7.469l-.031-7.469h-57.676v-37.125c19.351-6.248 32.828-24.345 32.828-45.18zm-35.538-54.535c.235 15.419 7.959 29.695 20.538 38.374v16.16c0 15.724-11.214 29.168-26.665 31.966l-2.947.534h-8.589v-47.756c0-15.288 6.549-29.454 17.663-39.278zm-20.384 124.472c-6.186 0-11.219-5.033-11.219-11.219s5.033-11.219 11.219-11.219h8.093v22.438zm23.093 58.806v-31.438h44.018c3.118 8.694 11.45 14.938 21.186 14.938s18.068-6.243 21.187-14.938h43.866v31.438c0 17.92-14.579 32.5-32.5 32.5h-65.256c-17.921 0-32.501-14.58-32.501-32.5zm-48.416 75.116c8.019 13.162 18.17 24.744 30.241 34.465l9.408-11.683c-8.315-6.696-15.583-14.403-21.759-22.969h66.954v-27.429h57.552v27.429h35.541v29.873c-19.156 12.525-41.317 19.123-64.393 19.123-22.088 0-43.619-6.143-62.266-17.764l-7.934 12.73c21.029 13.106 45.304 20.033 70.199 20.033 22.781 0 44.77-5.715 64.393-16.62v89.071c0 4.597 1.14 8.932 3.143 12.744h-198.722c2.003-3.813 3.143-8.147 3.143-12.744v-18.785c8.73-3.095 15-11.437 15-21.215v-9.938c0-12.407-10.093-22.5-22.5-22.5h-3.196l-15.542-45.601c11.009-10.663 25.468-17.124 40.738-18.22zm-82.945-24.059c1.211-.417 2.446-.614 3.661-.614 4.683 0 9.068 2.938 10.669 7.593l27.573 80.901h-23.609l-25.293-73.543c-2.024-5.882 1.116-12.314 6.999-14.337zm-6.556 115.381c0-6.893 5.607-12.5 12.5-12.5h55c4.136 0 7.5 3.364 7.5 7.5v9.938c0 4.136-3.364 7.5-7.5 7.5h-23v15h15.5v17.5c0 6.893-5.607 12.5-12.5 12.5h-47.5zm367.438-130.938v-22h35v22z"/><path d="m345.973 338.5c-14.888 0-27 12.112-27 27s12.112 27 27 27h101c14.888 0 27-12.112 27-27s-12.112-27-27-27zm113 27c0 6.617-5.383 12-12 12h-101c-6.617 0-12-5.383-12-12s5.383-12 12-12h101c6.617 0 12 5.383 12 12z"/><path d="m351.223 88.275v46.288h60v-46.288c12.124-9.295 19.25-23.548 19.25-39.025 0-27.157-22.094-49.25-49.25-49.25s-49.25 22.093-49.25 49.25c0 15.476 7.126 29.73 19.25 39.025zm45 31.287h-30v-27.395h30zm-15-104.562c18.886 0 34.25 15.364 34.25 34.25 0 11.193-5.352 21.483-14.415 27.917h-12.085v-22.438h-15v22.438h-12.585c-9.063-6.434-14.415-16.723-14.415-27.917 0-18.886 15.364-34.25 34.25-34.25z"/><path d="m436.473 428.5h-15v-15h15zm-30 0h-15v-15h15zm-30 0h-15v-15h15z" fill="#fff"/></g></g></svg>