<svg id="Capa_1" enable-background="new 0 0 512 512" height="512" viewBox="0 0 512 512" width="512" xmlns="http://www.w3.org/2000/svg"><g><g><path d="m380.684 504.5c0-17.642-3.696-34.433-10.334-49.657-7.179-16.464-17.907-31.244-31.338-43.261h-137.426v92.918z" fill="#30cd9c"/><path d="m173.001 411.582c-13.459 12.017-24.151 26.746-31.352 43.262-6.638 15.224-10.333 32.014-10.333 49.656h73.119c.041-36.281 14.553-68.987 37.832-92.918z" fill="#18c08b"/></g><g><path d="m200.491 387.075c-11.787 0-23.459 2.315-34.353 6.814l-32.148 13.276c-8.558 3.534-13.116 13.205-9.87 21.875 3.394 9.065 13.587 13.451 22.462 9.786l36.056-14.89h73.362v-36.862h-55.509z" fill="#ffb357"/><path d="m378.415 407.336-32.561-13.447c-10.894-4.499-22.566-6.814-34.353-6.814h-55.501v36.862h73.354l35.644 14.72c8.557 3.534 18.611-.102 22.429-8.537 3.991-8.819-.136-19.119-9.012-22.784z" fill="#ffce71"/></g><g><path d="m201.586 411.582c0 23.728 8.197 47.476 24.527 66.082 2.851 3.248 5.888 6.337 9.073 9.35l41.631.012c3.191-3.02 6.234-6.117 9.089-9.373 15.781-17.999 24.5-41.491 24.5-66.07h-108.82z" fill="#d4d4ff"/><g><path d="m246 441.841-10.814 45.172c6.329 5.986 13.285 11.647 20.825 17.486 7.535-5.835 14.484-11.493 20.806-17.475l-10.817-45.183z" fill="#676fb2"/><circle cx="256" cy="432.269" fill="#4c5699" r="22.5"/></g></g><g><path d="m289.774 432.269h-67.557c-12.144 0-20.632-9.975-20.632-20.687 0-3.869 1.137-7.889 3.629-11.534l8.866-12.968 41.92-22.555 41.911 22.556 8.866 12.968c2.492 3.646 3.629 7.848 3.629 11.534 0 10.73-8.489 20.686-20.632 20.686z" fill="#efedff"/><path d="m256 364.525-41.919 22.544c7.361 19.304 22.084 34.594 41.919 45.2 19.834-10.605 34.535-25.897 41.896-45.2h.001z" fill="#ffcbbe"/></g><g><g fill="#ffcbbe"><circle cx="106.544" cy="243.573" r="37.157"/><circle cx="405.455" cy="243.573" r="37.157"/></g><g><path d="m280.771 96.16h-28.548c-18.98 0-36.907 8.723-48.62 23.658l-97.058 123.755 97.058 123.755c11.713 14.935 29.64 23.65 48.62 23.65h28.548c70.82-11.837 124.685-73.357 124.685-147.405-.001-74.104-53.932-135.611-124.685-147.413z" fill="#ffddcf"/><path d="m156.088 243.573c0-74.103 53.934-135.61 124.683-147.413-8.059-1.344-16.332-2.043-24.772-2.043-82.54 0-149.454 66.914-149.454 149.457 0 82.54 66.915 149.454 149.454 149.454 8.44 0 16.713-.705 24.772-2.049-70.75-11.804-124.683-73.305-124.683-147.406z" fill="#ffcbbe"/></g></g><circle cx="332.406" cy="489.5" fill="#ffce71" r="15"/><path d="m290.999 282.078c-10.867-11.379-27.363-12.811-34.999-2.116-7.636-10.695-24.132-9.263-34.999 2.116-11.522 12.083-20.509 23.375-17.004 29.442 3.502 6.07 17.772 3.929 34-.005 8.064-1.963 14.507-6.67 18.004-12.432 3.497 5.762 9.94 10.469 18.004 12.432 16.227 3.933 30.498 6.075 34 .005 3.503-6.067-5.484-17.359-17.006-29.442z" fill="#ce857a"/><g><path d="m396.415 66.808c-31.275-27.427-72.461-50.591-115.543-57.325l-29.879 20v177.213h149.879s0 0 32.793-53.769c16.045-26.308 5.277-49.504-37.25-86.119z" fill="#30cd9c"/><path d="m280.872 9.483c-8.24-1.288-16.549-1.983-24.872-1.983-51.837.001-103.159 26.635-140.415 59.308-42.527 36.615-53.295 59.811-37.25 86.118 32.793 53.769 32.793 53.769 32.793 53.769h144.872 8.858c-6.095-25.194-9.031-50.965-8.835-76.718.201-26.473 3.712-52.925 10.559-78.711 3.761-14.164 8.523-28.128 14.29-41.783z" fill="#18c08b"/></g><g><path d="m295.211 71.646-18.639-4.993c-7.565-11.652-9.319-14.352-9.991-15.387h-10.559v78.711c.479.184 17.977 6.902 17.991 6.908 8.111 3.114 16.74-3.155 16.285-11.832l-1.011-19.269 12.144-14.995c5.468-6.75 2.172-16.895-6.22-19.143z" fill="#ffce71"/><path d="m266.064 50.47c-4.731-7.287-15.398-7.287-20.129 0l-10.508 16.184-18.639 4.993c-8.392 2.248-11.688 12.392-6.22 19.144l12.144 14.995-1.011 19.269c-.455 8.676 8.174 14.946 16.285 11.832l18.014-6.918s.016.006.023.009c.201-26.473 3.712-52.925 10.559-78.711-.238-.366-.342-.526-.518-.797z" fill="#ffb357"/></g><g><path d="m258.37 170.976v55.292l17.258 15.769c46.903-2.296 87.714-14.764 125.245-35.341-42.062-23.062-88.242-35.934-142.503-35.72z" fill="#676fb2"/><path d="m256 170.984c-55.29-.604-102.2 12.315-144.873 35.712 42.673 23.396 89.583 36.315 144.873 35.711 6.663.073 13.201-.056 19.628-.37-8.547-23.09-14.292-46.943-17.258-71.061-.789.003-1.578-.001-2.37.008z" fill="#4c5699"/></g><g><path d="m199.189 271.761v-9.358c0-4.142-3.358-7.5-7.5-7.5s-7.5 3.358-7.5 7.5v9.358c0 4.142 3.358 7.5 7.5 7.5s7.5-3.358 7.5-7.5z"/><path d="m320.311 254.903c-4.142 0-7.5 3.358-7.5 7.5v9.358c0 4.142 3.358 7.5 7.5 7.5s7.5-3.358 7.5-7.5v-9.358c-.001-4.142-3.358-7.5-7.5-7.5z"/><path d="m296.423 276.898c-11.434-11.972-28.607-15.404-40.423-7.304-11.842-8.118-29.013-4.644-40.427 7.308-12.678 13.296-24.517 27.21-18.073 38.365 6.436 11.157 24.408 7.864 42.271 3.535 6.187-1.506 11.778-4.39 16.229-8.271 4.452 3.881 10.046 6.766 16.237 8.273 17.223 4.174 35.736 7.778 42.26-3.532 6.447-11.159-5.392-25.074-18.07-38.37-.001-.001-.002-.003-.004-.004zm-20.645 27.33c-5.792-1.41-10.789-4.788-13.367-9.036-2.914-4.805-9.907-4.808-12.823 0-2.578 4.248-7.575 7.625-13.359 9.034-17.082 4.141-23.216 3.859-25.35 3.32.601-2.122 3.422-7.575 15.545-20.288 7.191-7.531 18.51-9.89 23.472-2.938 2.984 4.176 9.213 4.193 12.208 0 4.968-6.96 16.292-4.581 23.472 2.938 12.124 12.714 14.944 18.166 15.545 20.288-2.138.539-8.272.819-25.343-3.318z"/><path d="m297.151 64.401-15.857-4.248-8.94-13.769c-7.689-11.843-25.029-11.828-32.709 0l-8.939 13.769-15.857 4.248c-13.64 3.653-18.985 20.149-10.108 31.109l10.332 12.757-.86 16.394c-.74 14.101 13.295 24.282 26.463 19.227l15.324-5.885c4.936 1.895 14.999 5.759 15.309 5.878.005.002.011.004.016.006 13.136 5.043 27.204-5.101 26.462-19.227l-.86-16.394 10.333-12.756c8.887-10.973 3.514-27.46-10.109-31.109zm-1.548 21.669-12.145 14.995c-1.167 1.44-1.759 3.262-1.662 5.113l1.011 19.269c.171 3.253-3.067 5.606-6.107 4.437v.001c-.597-.231-3.401-1.308-17.986-6.907-.043-.017-.108-.041-.152-.057-1.698-.618-3.563-.601-5.251.047l-18.013 6.916c-3.041 1.168-6.278-1.183-6.107-4.437l1.011-19.269c.097-1.851-.495-3.673-1.662-5.113l-12.144-14.995c-2.051-2.534-.813-6.336 2.333-7.179l18.639-4.993c1.791-.479 3.34-1.605 4.35-3.16l10.507-16.184c1.775-2.733 5.775-2.732 7.548 0l10.508 16.183c1.01 1.555 2.559 2.681 4.35 3.161l18.639 4.993c3.149.843 4.383 4.647 2.333 7.179z"/><path d="m406.577 288.203c24.107-.599 43.536-20.381 43.536-44.629 0-21.734-15.611-39.882-36.207-43.845l10.502-17.219c2.156-3.537 1.038-8.152-2.498-10.309-3.537-2.156-8.151-1.038-10.309 2.498-1.663 2.726-12.226 20.047-13.449 22.054-44.139-22.921-90.704-33.821-142.152-33.269-51.43-.556-98.012 10.348-142.152 33.269l-29.11-47.731c-4.022-6.595-5.977-12.714-5.977-18.708 0-15.149 12.866-32.982 41.769-57.868 41.629-36.507 91.006-57.445 135.47-57.446 44.464.001 93.841 20.939 135.521 57.492 28.852 24.841 41.718 42.674 41.718 57.823 0 6.759-2.472 12.923-6.006 18.754-2.174 3.518-1.091 8.133 2.425 10.315 3.338 2.073 7.992 1.333 10.41-2.552 5.498-9.016 8.171-17.689 8.171-26.517 0-20.176-14.035-40.868-46.879-69.146-44.326-38.873-97.308-61.168-145.36-61.169-48.051.001-101.033 22.296-145.309 61.125-32.895 28.322-46.93 49.014-46.93 69.19 0 8.828 2.672 17.502 8.17 26.518l26.162 42.897c-20.596 3.962-36.206 22.11-36.206 43.845 0 24.252 19.435 44.036 43.545 44.63 11.749 39.432 39.034 73.451 75.546 93.34-6.029 1.232-11.944 3.036-17.704 5.415l-32.147 13.276c-12.322 5.088-18.617 19.191-14.031 31.438 3.323 8.877 11.098 14.562 19.724 15.735-1.149 2.387-2.073 4.43-3.112 6.955-1.577 3.831.251 8.214 4.081 9.79 3.836 1.578 8.216-.256 9.79-4.081 2.389-5.802 5.282-11.472 8.829-17.187l27.718-11.446h11.789c5.239 28.77 19.386 48.172 39.099 65.563h-54.574c.171-11.844.744-23.334 1.753-34.908.359-4.126-2.694-7.763-6.821-8.123-4.122-.367-7.763 2.693-8.123 6.821-1.047 12.008-1.639 23.925-1.811 36.209h-26.384c.21-3.301.559-6.588 1.043-9.832.611-4.097-2.214-7.914-6.311-8.525-4.093-.606-7.914 2.213-8.525 6.311-.959 6.429-1.446 13.005-1.446 19.547 0 4.142 3.358 7.5 7.5 7.5h249.368c4.143 0 7.5-3.358 7.5-7.5 0-19.952-4.506-39.46-13.1-57.259 8.186-1.116 15.631-6.196 19.177-14.029 5.738-12.682-.158-27.513-12.981-32.809l-32.561-13.446c-5.765-2.381-11.686-4.186-17.721-5.418 36.625-19.956 63.866-54.031 75.58-93.339zm28.536-44.63c0 14.701-10.754 26.932-24.807 29.254 3.624-19.098 3.666-38.9-.073-58.522 14.089 2.293 24.88 14.542 24.88 29.268zm-179.195-65.089c.055.001.109.001.164 0 46.346-.517 88.522 8.737 128.481 28.212-39.959 19.474-82.142 28.713-128.481 28.212-.055-.001-.109-.001-.164 0-46.34.501-88.521-8.736-128.481-28.212 39.957-19.474 82.12-28.716 128.481-28.212zm-179.031 65.089c0-14.728 10.794-26.978 24.885-29.268-3.738 19.62-3.694 39.422-.069 58.524-14.058-2.319-24.816-14.551-24.816-29.256zm132.199 168.009c0-4.423 2.134-7.028 3.873-9.572 4.88 8.393 11.245 16.031 18.947 22.759h-9.688c-8.112 0-13.132-6.845-13.132-13.187zm59.884 28.187c-2.599 4.476-7.433 7.5-12.97 7.5s-10.372-3.024-12.97-7.5zm-19.95 21.672c2.241.536 4.577.828 6.98.828s4.739-.292 6.98-.828l5.518 23.049c-4.195 3.775-8.54 7.352-12.487 10.485-3.954-3.137-8.306-6.72-12.505-10.498zm31.897 10.496-4.289-17.916c4.021-3.815 6.995-8.724 8.423-14.252h4.724c3.27 0 6.409-.568 9.331-1.6-3.625 12.485-9.781 23.956-18.189 33.768zm8.857-47.168h-9.686c7.698-6.728 14.061-14.367 18.94-22.763 1.599 2.337 3.877 5.137 3.877 9.576.001 6.342-5.02 13.187-13.131 13.187zm-33.774-1.094c-11.754-6.885-21.16-15.565-27.834-25.599 9.087 1.614 18.391 2.452 27.833 2.452 9.438 0 18.738-.838 27.822-2.452-6.674 10.037-16.075 18.718-27.821 25.599zm-73.362-7.238c-.982 0-1.955.193-2.863.568-33.87 13.987-26.636 11-36.057 14.89-4.967 2.053-10.668-.392-12.575-5.484-1.78-4.755.78-10.278 5.708-12.313l32.148-13.276c9.845-4.066 20.226-6.154 30.861-6.233-5.948 8.703-6.01 14-5.652 21.849h-11.57zm30.252 21.733c2.921 1.032 6.058 1.599 9.327 1.599h4.732c1.428 5.528 4.402 10.437 8.423 14.252l-4.287 17.909c-8.409-9.806-14.567-21.275-18.195-33.76zm112.016 51.33c0-4.136 3.365-7.5 7.5-7.5s7.5 3.364 7.5 7.5-3.364 7.5-7.5 7.5-7.5-3.364-7.5-7.5zm28.71 7.5c5.187-14.626-5.729-30-21.21-30-15.518 0-26.385 15.409-21.21 30h-34.193c19.964-17.62 33.9-37.111 39.073-65.563h11.791l27.736 11.454c10.179 16.393 16.114 34.922 17.341 54.109zm21.936-82.732c4.967 2.051 7.284 7.803 5.041 12.76-2.093 4.625-7.805 6.731-12.733 4.697-13.821-5.708-21.178-8.746-35.643-14.72-.908-.375-1.881-.568-2.863-.568h-11.574c.339-7.374.41-12.987-5.651-21.848 10.637.08 21.019 2.167 30.863 6.232zm-119.554-28.74c-89.113 0-155.621-80.914-139.638-167.592 43.339 22.011 89.11 32.511 139.64 31.972 50.445.546 96.248-9.932 139.645-31.973 16.004 86.786-50.659 167.593-139.647 167.593z"/></g></g></svg>