<svg height="512pt" viewBox="0 0 512 512.001" width="512pt" xmlns="http://www.w3.org/2000/svg"><path d="m61.585938 371.011719 31.089843 31.089843 80.90625-80.90625 17.222657 17.222657-80.902344 80.90625 31.089844 31.089843 172.980468-172.980468h120.695313l30.082031-30.085938-31.089844-31.089844-17.203125 17.207032h-54.125l-21.917969-21.917969 14.492188-14.488281c-5.238281 0-10.613281 0-17.304688 0l-22.65625-22.65625v-17.308594l-14.492187 14.492188-21.914063-21.914063v-54.125l17.207032-17.207031-31.089844-31.089844-30.085938 30.085938v120.695312zm0 0" fill="#57a4ff"/><path d="m327.722656 228.15625c0 13.1875-10.691406 23.878906-23.878906 23.878906-13.191406 0-23.882812-10.691406-23.882812-23.878906 0-13.191406 10.691406-23.882812 23.882812-23.882812 13.1875 0 23.878906 10.691406 23.878906 23.882812zm0 0" fill="#006df0"/><path d="m401.347656 171.554688-25.503906 25.5c-14.9375 0-23.308594 0-38.242188 0l-22.65625-22.65625c0-14.933594 0-23.308594 0-38.242188l25.5-25.5c16.816407-16.816406 44.085938-16.816406 60.902344 0s16.816406 44.082031 0 60.898438zm0 0" fill="#ffdaaa"/><path d="m183.976562 248.621094 79.398438 79.402344-23.804688 23.804687-79.402343-79.398437zm0 0" fill="#ffe477"/><path d="m464.75 247.347656 36.640625-36.644531-19.863281-19.863281h-22.449219l-25.417969 25.417968zm0 0" fill="#ffdaaa"/><path d="m264.65625 47.25 36.640625-36.640625 19.863281 19.863281v22.449219l-25.417968 25.417969zm0 0" fill="#ffdaaa"/><g fill="#ffe477"><path d="m355.265625 277.429688-124.609375 204.011718-80.179688-40.511718 163.496094-163.5zm0 0"/><path d="m234.570312 198.027344v-35.714844l-200.625 122.414062 37.578126 76.335938zm0 0"/><path d="m10.609375 421.988281 23.6875 23.691407h14.800781l43.578125-43.582032-31.089843-31.085937zm0 0"/><path d="m109.902344 419.324219-43.582032 43.578125v14.800781l23.691407 23.6875 50.976562-50.976563zm0 0"/></g><path d="m91.59375 371.011719 172.980469-172.984375v-120.691406l15.082031-15.082032-15-15.003906-30.085938 30.085938v120.691406l-172.984374 172.984375 31.089843 31.085937 15.003907-15zm0 0" fill="#006df0"/><path d="m344.949219 136.15625 25.503906-25.503906c4.527344-4.527344 9.8125-7.832032 15.445313-9.925782-15.292969-5.671874-33.164063-2.363281-45.453126 9.925782l-25.5 25.503906v38.242188l22.65625 22.65625h30.003907l-22.65625-22.65625zm0 0" fill="#fbb984"/><path d="m190.171875 272.433594 8.804687-8.804688-15.003906-15.003906-23.804687 23.808594 79.402343 79.398437 15-15zm0 0" fill="#ffb655"/><path d="m463.664062 216.257812 21.640626-21.640624-3.777344-3.777344h-22.449219l-25.417969 25.417968 31.089844 31.089844 15.003906-15.003906zm0 0" fill="#fbb984"/><path d="m294.660156 47.25 21.636719-21.640625-15-15-36.640625 36.640625 31.085938 31.089844 15.003906-15.003906zm0 0" fill="#fbb984"/><path d="m180.480469 440.929688 163.496093-163.5h11.289063-41.292969l-163.496094 163.5 80.179688 40.511718 7.074219-11.585937zm0 0" fill="#ffb655"/><path d="m63.949219 284.726562 170.621093-104.105468v-18.308594l-200.625 122.414062 37.578126 76.335938 20.105468-20.105469zm0 0" fill="#ffb655"/><path d="m40.613281 421.988281 35.976563-35.976562-15-15-50.980469 50.976562 23.6875 23.691407h14.800781l7.601563-7.601563zm0 0" fill="#ffb655"/><path d="m96.324219 477.703125v-14.800781l28.578125-28.578125-15-15-43.582032 43.578125v14.800781l23.691407 23.6875 15-15zm0 0" fill="#ffb655"/><path d="m307.71875 228.15625c0 13.1875-10.691406 23.878906-23.878906 23.878906-13.191406 0-23.882813-10.691406-23.882813-23.878906 0-13.191406 10.691407-23.882812 23.882813-23.882812 13.1875 0 23.878906 10.691406 23.878906 23.882812zm0 0" fill="#ffe477"/><path d="m368.59375 179.554688h-20.636719v-15.003907h14.421875l.6875-.6875.6875.6875h1.734375v1.734375l8.1875 8.1875zm12.152344-12.15625-10.605469-10.605469 8.222656-8.222657c.472657-.472656.898438-.984374 1.265625-1.523437l12.378906 8.476563c-.894531 1.304687-1.917968 2.539062-3.042968 3.660156zm15.683594-25.140626-14.984376-.679687c.003907-.15625.007813-.316406.007813-.476563 0-2.820312-1.097656-5.46875-3.089844-7.464843l10.605469-10.605469c4.828125 4.824219 7.488281 11.242188 7.488281 18.070312 0 .390626-.007812.773438-.027343 1.15625zm0 0" fill="#fff"/><path d="m147.996094 422.921875-10.605469-10.605469 27.28125-27.285156 10.609375 10.609375zm34.355468-34.351563-10.605468-10.609374 10.605468-10.609376 10.609376 10.609376zm17.683594-17.683593-10.609375-10.609375 10.609375-10.605469 10.605469 10.609375zm0 0" fill="#fff"/><path d="m227.40625 451.441406-12.804688-7.820312 37.46875-61.34375 12.804688 7.816406zm42.683594-69.882812-12.804688-7.816406 7.820313-12.804688 12.804687 7.820312zm13.03125-21.335938-12.804688-7.820312 7.820313-12.800782 12.804687 7.816407zm0 0" fill="#fff"/><path d="m512 210.703125-27.367188-27.363281h-28.660156c-2.042968 2.042968-11.320312 11.320312-42.625 42.621094h-47.910156l-14.414062-14.414063 6.992187-6.988281h20.9375l27.699219-27.699219c19.714844-19.714844 19.714844-51.792969 0-71.507813-19.714844-19.714843-51.792969-19.714843-71.507813 0l-27.699219 27.699219v20.9375l-6.992187 6.988281-14.414063-14.414062v-47.910156c13.101563-13.097656 5.875-5.871094 42.625-42.621094v-28.664062l-27.367187-27.367188c-65.113281 65.113281-49.441406 49.441406-151.179687 151.179688l10.609374 10.605468 66.34375-66.34375v20.109375l-27.035156 27.035157 10.605469 10.609374 16.429687-16.429687v58.152344c-5.8125 5.8125-220.957031 220.960937-227.070312 227.074219l31.191406 31.1875h21.015625c3.214844-3.214844 117.78125-117.78125 121.375-121.375l6.617188 6.613281c-2.894531 2.894531-115.964844 115.964843-121.378907 121.378906v21.011719l31.191407 31.191406 227.066406-227.066406h58.15625l-16.429687 16.425781 10.609374 10.609375 27.035157-27.035156h20.105469l-66.339844 66.339844 10.605468 10.609374c6.710938-6.707031 146.019532-146.015624 151.179688-151.179687zm-49.8125-12.363281h16.230469l12.367187 12.363281-26.035156 26.035156c-7.582031-7.582031-12.902344-12.902343-20.480469-20.480469zm-139.742188-59.074219 23.304688-23.308594c13.867188-13.863281 36.425781-13.863281 50.292969 0 13.863281 13.867188 13.863281 36.425781 0 50.292969l-23.304688 23.304688h-32.03125l-18.261719-18.261719zm-8.785156-105.6875v16.238281l-17.914062 17.914063-20.484375-20.480469 26.035156-26.035156zm-267.667968 404.601563h-8.585938l-16.191406-16.191407 40.371094-40.371093 10.242187 10.242187 10.242187 10.238281zm44.019531 52.605468-16.1875-16.191406v-8.585938l36.078125-36.078124 20.480468 20.484374zm50.980469-50.980468-20.484376-20.480469 80.90625-80.90625-27.832031-27.832031-80.90625 80.90625-10.238281-10.242188-10.242188-10.238281 193.074219-193.074219-10.605469-10.609375-12.589843 12.589844v-99.476563l22.582031-22.582031 20.480469 20.480469-14.097657 14.101562v60.335938l29.414063 29.417968 6.992187-6.992187v2.304687l27.050782 27.050782h2.304687l-6.992187 6.988281 29.417968 29.417969h60.335938l14.101562-14.101563c7.582032 7.585938 12.898438 12.902344 20.480469 20.484375l-22.582031 22.582032h-99.476562l12.589843-12.589844-10.609375-10.609375zm0 0"/><path d="m227.863281 471.625-55.210937-27.898438-6.765625 13.390626 67.5625 34.140624 116-189.914062-12.804688-7.820312zm0 0"/><path d="m210.660156 168.117188-186.472656 113.777343 31.277344 63.535157 13.460937-6.628907-25.226562-51.238281 174.773437-106.640625zm0 0"/><path d="m192.808594 268.074219 10.609375-10.609375 51.113281 51.113281-10.609375 10.609375zm0 0"/><path d="m169.003906 291.878906 10.609375-10.609375 51.113281 51.117188-10.609374 10.605469zm0 0"/><path d="m283.839844 196.773438c-17.304688 0-31.382813 14.074218-31.382813 31.378906 0 17.304687 14.078125 31.382812 31.382813 31.382812 17.304687 0 31.382812-14.078125 31.382812-31.382812 0-17.304688-14.078125-31.378906-31.382812-31.378906zm0 47.761718c-9.03125 0-16.378906-7.347656-16.378906-16.382812 0-9.03125 7.347656-16.378906 16.378906-16.378906s16.378906 7.347656 16.378906 16.378906c0 9.035156-7.347656 16.382812-16.378906 16.382812zm0 0"/></svg>