<svg height="512pt" viewBox="-30 0 512 512" width="512pt" xmlns="http://www.w3.org/2000/svg"><path d="m358.640625 198.179688c2.300781-6.75 4.226563-13.632813 5.765625-20.601563.128906-.589844-1.035156-2.59375-2.910156-5.332031-11.429688-16.695313-27.695313-29.496094-46.515625-36.929688l-51.109375-20.1875c-24.164063-9.542968-51.054688-9.523437-75.203125.054688l-51.019531 20.230468c-18.800782 7.457032-35.039063 20.277344-46.445313 36.976563-1.875 2.746094-3.042969 4.753906-2.910156 5.347656 1.742187 7.863281 3.988281 15.613281 6.699219 23.199219 26.273437 73.371094 89.109374 108.96875 89.109374 108.96875l84.644532-.046875s62.714844-35.625 88.9375-108.929687c.324218-.914063.644531-1.832032.957031-2.75zm0 0" fill="#1e3744"/><path d="m150.257812 138.242188-9.675781.007812c-3.503906 0-6.730469 1.1875-9.304687 3.179688-4.46875 3.457031-6.425782 9.269531-5.414063 14.828124l3.8125 20.921876c2.960938 15.503906 20.632813 8.40625 20.632813 8.40625zm0 0" fill="#efd0af"/><path d="m303.210938 138.15625 9.675781-.007812c3.503906 0 6.734375 1.179687 9.308593 3.167968 4.472657 3.453125 6.4375 9.261719 5.429688 14.824219l-3.789062 20.921875c-2.9375 15.511719-20.621094 8.433594-20.621094 8.433594zm0 0" fill="#fae0c1"/><path d="m257.109375 349.839844 33.0625-31.09375c5.726563-5.382813 2.902344-14.984375-4.820313-16.414063-8.984374-1.800781-15.453124-12.21875-15.460937-21.382812l-.023437-40.835938-43.527344.027344-43.53125.023437.023437 40.835938c.003907 9.164062-6.453125 19.589844-15.433593 21.398438-7.726563 1.441406-10.535157 11.046874-4.808594 16.421874l33.101562 31.054688c17.273438 16.203125 44.164063 16.1875 61.417969-.035156zm0 0" fill="#fae0c1"/><path d="m285.351562 302.332031c-8.988281-1.800781-15.457031-12.21875-15.460937-21.382812l-.023437-40.832031-34.390626.019531.019532 40.8125c.007812 9.164062 6.476562 19.582031 15.460937 21.382812 7.726563 1.429688 10.546875 11.03125 4.824219 16.414063l-33.066406 31.09375c-4.058594 3.816406-8.652344 6.738281-13.53125 8.757812 15.863281 6.582032 34.71875 3.660156 47.921875-8.757812l33.066406-31.09375c5.726563-5.378906 2.902344-14.984375-4.820313-16.414063zm0 0" fill="#efd0af"/><path d="m280.316406 51.1875c-12.589844-11.625-30.28125-21.769531-53.644531-22.035156-23.363281.292968-41.042969 10.457031-53.617187 22.097656-16.039063 14.847656-24.722657 36.890625-24.710938 59.632812l.003906 2.746094h.019532l.046874 79.269532c.453126 22.105468 15.71875 37.402343 28.984376 50.539062 12.207031 12.085938 26.046874 26.363281 49.414062 26.628906 23.359375-.292968 37.1875-14.582031 49.378906-26.6875 13.25-13.152344 28.5-28.464844 28.929688-50.570312l-.046875-79.269532h.023437l-.003906-2.75c-.011719-22.738281-8.71875-44.769531-24.777344-59.601562zm0 0" fill="#fae0c1"/><path d="m305.074219 113.539062h.019531v-2.746093c-.015625-22.742188-8.722656-44.773438-24.777344-59.605469-3.097656-2.859375-6.507812-5.632812-10.230468-8.1875v70.539062l-.019532-53.304687.042969 132.574219c-.429687 22.105468-15.679687 37.421875-28.929687 50.574218-8.796876 8.730469-18.441407 18.597657-31.902344 23.53125 5.214844 1.910157 11 3.078126 17.53125 3.15625 23.363281-.292968 37.1875-14.585937 49.378906-26.6875 13.25-13.152343 28.5-28.46875 28.929688-50.574218zm0 0" fill="#efd0af"/><path d="m369.703125 292.671875-68.472656-13.035156c-14.558594-2.773438-29.730469-.542969-42.582031 6.828125-9.222657 5.285156-21.722657 8.847656-27.957032 10.421875-2.539062.640625-5.1875.628906-7.722656-.03125-6.195312-1.613281-18.609375-5.238281-27.945312-10.507813-12.960938-7.3125-28.015626-10-42.613282-7.109375-27.378906 5.421875-63.140625 12.5-63.140625 12.5-9.394531 1.859375-12.875 4.125-15.191406 7.410157l-61.472656 105.273437c-6.113281 10.46875-6.792969 23.246094-1.828125 34.308594l24.8125 55.273437c2.191406 6.285156 8.125 10.5 14.78125 10.496094l353.046875-.203125c6.707031-.003906 12.664062-4.28125 14.8125-10.636719l24.15625-55.4375c4.761719-10.925781 4.050781-23.460937-1.910157-33.78125l-60.867187-105.355468c-2.339844-3.351563-5.894531-5.652344-9.90625-6.414063zm0 0" fill="#2a4d5e"/><path d="m418.230469 493.660156 24.15625-55.4375c4.761719-10.925781 4.050781-23.460937-1.910157-33.78125l-60.867187-105.355468c-2.339844-3.351563-5.894531-5.652344-9.90625-6.414063l-68.472656-13.035156c-14.558594-2.773438-29.730469-.546875-42.582031 6.824219-5.777344 3.3125-12.84375 5.949218-18.847657 7.84375-.003906 0-.003906 0-.003906 0 1.808594.191406 86.078125 19.300781 86.078125 19.300781 4.015625.765625 7.566406 3.066406 9.90625 6.417969l60.867188 95.351562c5.964843 10.320312 6.671874 22.855469 1.910156 33.78125l-24.03125 55.15625 28.890625-.015625c6.707031-.003906 12.664062-4.28125 14.8125-10.636719zm0 0" fill="#214451"/><path d="m390.496094 494.683594-327.117188.183594-18.925781-174.316407c-.613281-5.644531 3.804687-10.566406 9.476563-10.570312l345.804687-.199219c5.675781-.003906 10.097656 4.917969 9.492187 10.5625zm0 0" fill="#ededed"/><path d="m399.734375 309.78125-24.714844.015625-19.867187 184.886719h35.34375l18.730468-174.339844c.605469-5.644531-3.816406-10.566406-9.492187-10.5625zm0 0" fill="#d6d6d6"/><path d="m405.183594 504.5h-356.476563c-5.222656.003906-9.460937-4.226562-9.464843-9.449219l-.003907-6.835937c0-5.226563 4.230469-9.460938 9.453125-9.464844l356.476563-.203125c5.222656 0 9.457031 4.230469 9.460937 9.453125l.003906 6.835938c0 5.222656-4.230468 9.660156-9.449218 9.664062zm0 0" fill="#d6d6d6"/><path d="m414.628906 488c-.003906-5.222656-4.238281-9.453125-9.464844-9.449219l-25.675781.011719.007813 25.75 25.683594.1875c5.222656-.003906 9.453124-4.441406 9.453124-9.664062zm0 0" fill="#bebebe"/><path d="m250.039062 365.066406c0 13.050782-10.578124 23.628906-23.628906 23.628906-13.046875 0-23.628906-10.578124-23.628906-23.628906 0-13.046875 10.582031-23.628906 23.628906-23.628906 13.050782 0 23.628906 10.582031 23.628906 23.628906zm0 0" fill="#8c4949"/><path d="m238.582031 443.5c-7.464843 4.46875-16.78125 4.472656-24.25.015625-12.21875-7.292969-19.703125-20.46875-19.710937-34.695313l-.011719-22.285156c-.007813-11.847656 9.589844-21.453125 21.433594-21.460937l20.734375-.011719c11.847656-.007812 21.453125 9.589844 21.460937 21.433594l.011719 22.289062c.007812 14.226563-7.460938 27.410156-19.667969 34.714844zm0 0" fill="#f43b45"/><path d="m364.085938 178.992188c.109374-.46875.214843-.941407.320312-1.414063v-.003906c.023438-.898438.03125-1.796875.03125-2.699219-.035156-62.976562-75.195312-166.949219-138.234375-167.375-63.035156.496094-138.078125 104.554688-138.039063 167.535156 0 .789063.007813 1.574219.027344 2.359375.046875.148438.082032.265625.097656.34375.09375.410157.1875.820313.277344 1.230469 5.648438-20.5625 77.765625-36.789062 137.714844-36.902344 60.128906.046875 132.515625 16.285156 137.804688 36.925782zm0 0" fill="#2a4d5e"/><path d="m226.203125 7.5c-5.996094.046875-12.097656 1.03125-18.238281 2.828125 52.152344 15.253906 106.773437 89.074219 117.878906 145.261719 21.046875 6.335937 35.949219 14.457031 38.242188 23.402344.109374-.46875.214843-.9375.320312-1.414063 0 0 0 0 0-.003906.023438-.894531.03125-1.796875.03125-2.695313-.035156-62.980468-75.195312-166.953125-138.234375-167.378906zm0 0" fill="#1f3f47"/><path d="m244.972656 387.753906c7.242188-.003906 11.484375-7.023437 9.789063-12.945312-3.828125-5.867188-10.441407-9.746094-17.96875-9.746094l-20.765625.011719c-7.316406.007812-13.769532 3.683593-17.632813 9.285156-2.074219 6.042969 2.070313 13.417969 9.582031 13.414063zm0 0" fill="#cf3735"/><path d="m288.402344 398.167969c-.003906-4.140625-3.359375-7.496094-7.503906-7.496094l-15.152344.011719s-.007813-4.863282-.019532-5.199219c9.179688-3.925781 15.703126-12.460937 17.085938-22.347656l2.023438-11.175781c.738281-4.074219-1.964844-7.976563-6.042969-8.71875-4.070313-.734376-7.976563 1.96875-8.714844 6.042968 0 0-2.09375 11.570313-2.113281 11.6875-.558594 4.214844-3.078125 7.917969-6.71875 10.011719-1.066406-1.675781-2.3125-3.25-3.726563-4.691406 0 0 .027344-.828125.023438-1.242188-.003907-8.316406-3.246094-16.128906-9.128907-22.007812-5.878906-5.871094-13.6875-9.101563-22.015624-9.101563-8.316407.003906-16.128907 3.246094-22.003907 9.128906-5.878906 5.882813-9.113281 13.699219-9.105469 22.015626 0 .417968.027344 1.257812.027344 1.257812-1.394531 1.4375-2.632812 3.015625-3.695312 4.695312-3.65625-2.082031-6.191406-5.792968-6.757813-10.015624-.015625-.117188-2.125-11.6875-2.125-11.6875-.742187-4.074219-4.652343-6.773438-8.722656-6.03125-4.074219.742187-6.777344 4.648437-6.03125 8.726562l2.039063 11.171875c1.390624 9.886719 7.925781 18.414063 17.109374 22.324219-.011718.335937-.015624 5.199218-.015624 5.199218l-15.152344.011719c-4.144532 0-7.5 3.363281-7.496094 7.503907.003906 4.140624 3.359375 7.496093 7.503906 7.496093l15.152344-.011719s0 3.363282.003906 3.496094c-9.171875 3.929688-15.6875 12.457032-17.070312 22.339844 0 0-2.023438 11.171875-2.023438 11.175781-.828125 4.550781 2.789063 8.863281 7.417969 8.835938 3.589844-.015625 6.683594-2.652344 7.339844-6.160157l2.054687-11.335937c.023438-.117187.039063-.234375.054688-.351563.46875-3.523437 2.308594-6.691406 5.027344-8.859374 3.703124 10.347656 10.910156 19.328124 20.5625 25.089843 4.921874 2.9375 10.441406 4.40625 15.957031 4.40625 5.53125 0 11.058593-1.476562 15.988281-4.425781 9.644531-5.773438 16.839844-14.761719 20.535156-25.113281 2.71875 2.164062 4.5625 5.332031 5.035156 8.851562.015626.117188.035157.234375.054688.351563 0 0 2.066406 11.324218 2.070312 11.335937.679688 3.738281 4.273438 6.40625 8.039063 6.109375 4.339844-.339844 7.492187-4.539062 6.714844-8.800781l-2.039063-11.175781c-1.390625-9.878906-7.917968-18.398438-17.09375-22.320313 0-.128906 0-3.492187 0-3.492187l15.152344-.011719c4.140625 0 7.5-3.363281 7.496094-7.503906zm-42.527344-20.632813c-.300781.796875-1.070312 1.46875-1.960938 1.46875 0 0-34.964843.023438-34.964843.023438-.976563 0-1.628907-.46875-1.9375-1.394532-.308594-.941406-.0625-1.71875.734375-2.3125 2.410156-1.796874 5.285156-2.746093 8.308594-2.746093 0 0 20.734374-.011719 20.738281-.011719 3.121093 0 6.066406 1.003906 8.523437 2.902344.007813.003906.015625.011718.023438.015625.011718.007812.019531.015625.03125.027343.675781.53125.769531 1.328126.503906 2.027344zm-19.46875-28.597656h.011719c4.304687 0 8.351562 1.675781 11.398437 4.71875 1.242188 1.242188 2.257813 2.65625 3.027344 4.183594-1.328125-.183594-2.683594-.277344-4.050781-.277344-.003907 0-.007813-.003906-.011719 0l-20.734375.011719c-1.375 0-2.730469.097656-4.066406.28125.765625-1.527344 1.78125-2.941407 3.023437-4.183594 3.046875-3.050781 7.09375-4.730469 11.402344-4.734375zm-24.28125 59.878906-.007812-16.171875c2.09375.894531 4.402343 1.378907 6.832031 1.378907h.007812l9.964844-.003907.035156 43.488281c-.261719-.136718.253907.148438 0 0-11.417969-6.632812-16.824219-17.167968-16.832031-28.691406zm31.832031 28.6875-.035156-43.492187 10-.007813c2.421875 0 4.730469-.488281 6.824219-1.390625l.011718 16.171875c.003907 11.527344-6.070312 22.695313-16.800781 28.71875zm0 0"/><path d="m446.976562 400.6875-15.921874-27.558594c-2.074219-3.589844-6.660157-4.816406-10.246094-2.742187-3.585938 2.070312-4.816406 6.660156-2.742188 10.246093l15.921875 27.558594c4.75 8.222656 5.320313 18.328125 1.527344 27.035156l-17.953125 41.199219c-.128906-.140625-3.566406-5.1875-12.394531-5.375h-4.585938l16.105469-149.90625c.515625-4.804687-1.039062-9.621093-4.269531-13.214843-3.226563-3.589844-7.847657-5.648438-12.683594-5.648438l-160.679687.09375c6.992187-2.0625 16.011718-5.210938 23.328124-9.40625 11.054688-6.339844 24.351563-8.460938 37.445313-5.964844l48.019531 9.140625c4.066406.773438 7.996094-1.894531 8.769532-5.964843.777343-4.070313-1.894532-7.996094-5.964844-8.769532l-29.808594-5.675781c19.847656-21.824219 34.59375-46.089844 43.910156-72.296875 3.148438-8.859375 7.191406-19.035156 7.1875-28.566406-.019531-32.027344-18.0625-74.859375-47.09375-111.777344-31.367187-39.886719-67.300781-62.882812-98.585937-63.09375h-.109375c-31.285156.246094-67.195313 23.285156-98.515625 63.207031-28.988281 36.949219-46.984375 79.800781-46.96875 111.835938.011719 9.390625 4.136719 19.632812 7.25 28.398437 9.308593 26.179688 24.035156 50.425782 43.859375 72.238282l-28.261719 5.59375c-4.0625.804687-6.703125 4.75-5.898437 8.8125.804687 4.0625 4.753906 6.695312 8.8125 5.902343l47.441406-9.394531c12.574218-2.488281 25.878906-.257812 37.472656 6.28125 7.480469 4.222656 16.601562 7.421875 23.574219 9.511719l-160.984375.089843c-4.832032.003907-9.453125 2.066407-12.679688 5.664063-3.222656 3.597656-4.773437 8.414063-4.253906 13.21875l16.277344 149.886719-4.585938.003906c-7.941406 0-12.386718 5.386719-12.578125 5.597656l-18.488281-41.1875c-3.964844-8.832031-3.417969-19.097656 1.464844-27.457031l16.714844-28.628906c2.089843-3.574219.882812-8.167969-2.695313-10.257813-3.574219-2.089844-8.167969-.882812-10.257813 2.695313l-16.714843 28.625c-7.320313 12.535156-8.140625 27.921875-2.195313 41.164062l24.691406 55.003907c1.96875 5.382812 5.800782 9.789062 10.855469 12.476562 2.722657 1.769531 5.894531 2.71875 9.226563 2.71875h356.476562c3.507813-.003906 6.855469-1.265625 9.671875-3.234375 4.839844-2.753906 8.5-7.117187 10.363281-12.371094l24.042969-55.175781c5.683594-13.050781 4.828125-28.203125-2.292969-40.53125zm-143.632812-128.285156s-10.347656-2.902344-25.949219-.445313l-.015625-19.195312c1.105469-1.082031 4.097656-4.058594 4.097656-4.058594 13.359376-13.261719 29.917969-29.695313 31.089844-54.113281 3.3125-.101563 6.871094-.847656 10.113282-2.851563 3.105468-1.921875 7.109374-5.78125 8.542968-13.335937l2.242188-12.394532c14.480468 5.328126 20.894531 10.394532 22.804687 13.578126-.785156 3.285156-2.582031 10.195312-5.652343 18.832031-9.609376 27.035156-25.507813 51.910156-47.273438 73.984375zm-120.664062-34.296875c-12.34375-12.222657-26.332032-26.078125-26.761719-45.289063l-.023438-36.445312c22.359375-4.28125 47.578125-6.761719 70.386719-6.804688 23.144531.015625 48.734375 2.535156 71.320312 6.898438l.019532 36.269531c-.40625 19.210937-14.378906 33.082031-26.710938 45.324219 0 0-22.746094 24.507812-44.101562 24.507812-20.976563 0-44.128906-24.460937-44.128906-24.460937zm-41.769532-58.425781c-2.164062 0-3.535156-2.199219-3.851562-3.847657l-2.648438-14.53125c1.449219-.394531 5.820313-1.515625 6.488282-1.675781zm171.707032-.101563-.011719-19.828125c.4375.109375 4.800781 1.230469 6.445312 1.683594 0 0-2.574219 14.203125-2.578125 14.234375-.398437 2.214843-1.496094 3.71875-3.855468 3.910156zm-86.402344-164.578125c53.066406.410156 119.128906 84.296875 129.367187 144.726562-8.992187-5.320312-21.675781-10.066406-37.988281-14.191406-27.0625-6.84375-61.195312-10.945312-91.320312-10.96875-30.003907.058594-64.039063 4.175782-91.046876 11.011719-16.421874 4.15625-29.183593 8.9375-38.210937 14.292969 10.183594-60.457032 76.140625-144.398438 129.199219-144.871094zm-77.050782 257.234375c-21.683593-22.03125-37.523437-46.847656-47.109374-73.816406-3.058594-8.597657-4.851563-15.480469-5.640626-18.785157 2.027344-3.25 8.679688-8.414062 23.578126-13.8125l2.324218 12.761719c1.425782 7.488281 5.433594 11.351563 8.546875 13.269531 3.242188 2 6.800781 2.742188 10.113281 2.835938 1.203126 24.417969 17.773438 40.832031 31.148438 54.078125 0 0 2.40625 2.382813 3.195312 3.160156l.011719 19.609375c-13.144531-2.472656-26.167969.699219-26.167969.699219zm41.167969 3.535156-.003906-10.710937c9.527344 6.933594 21.15625 12.335937 36.402344 12.507812h.085937.089844c14.761719-.183594 26.132812-5.269531 35.480469-11.894531l.003906 10.601563c-2.558594 1.070312-5.054687 2.296874-7.46875 3.683593-8.675781 4.972657-21.113281 8.410157-26.0625 9.65625-1.304687.328125-2.691406.324219-4-.015625-4.917969-1.28125-17.3125-4.796875-26.144531-9.78125-2.722656-1.539062-5.523438-2.886718-8.382813-4.046875zm-138.421875 43.96875c-.078125-.746093.234375-1.269531.511719-1.582031.277344-.308594.765625-.675781 1.519531-.675781l345.804688-.199219c.75 0 1.238281.367188 1.515625.675781.277343.308594.59375.835938.511719 1.582031l-16.28125 151.519532-317.128907.183594zm353.273438 177.058594s-356.476563.203125-356.480469.203125c-1.070313 0-1.953125-.886719-1.953125-1.953125 0 0-.003906-6.832031-.003906-6.835937 0-1.035157.875-1.957032 1.953125-1.957032 0 0 356.476562-.203125 356.480469-.203125 1.070312 0 1.953124.886719 1.953124 1.953125l.003907 6.835938c0 1.078125-.875 1.957031-1.953125 1.957031zm0 0"/></svg>