<svg id="Capa_1" enable-background="new 0 0 511.18 511.18" height="512" viewBox="0 0 511.18 511.18" width="512" xmlns="http://www.w3.org/2000/svg"><g><g><g><path d="m194.524 355.862h123.217v125.295h-123.217z" fill="#ffe5c2"/></g><path d="m388.793 287.838c8.699 0 15.752-7.052 15.752-15.752v-30.226c0-5.273-4.275-9.548-9.548-9.548h-55.735v55.526z" fill="#ffe5c2"/><path d="m122.387 287.838c-8.699 0-15.752-7.052-15.752-15.752v-30.226c0-5.273 4.275-9.548 9.548-9.548h39.866v55.526z" fill="#ffe5c2"/><path d="m370.693 297.728c0 53.148-32.529 100.88-81.996 120.317l-27.312 10.732c-3.376 1.326-7.128 1.326-10.504 0l-27.312-10.732c-49.466-19.437-81.996-67.169-81.996-120.317v-114.217h229.12z" fill="#b5adb6"/><path d="m141.573 260.407c8.053 2.638 16.555 4.031 25.277 4.031h50.92c9.358 0 18.184-4.097 24.197-11.221l10.661-12.599h4.924l10.646 12.583c6.03 7.141 14.855 11.237 24.212 11.237h50.92c9.6 0 18.811-1.689 27.363-4.771v-76.155h-229.12z" fill="#a79ba7"/><g><path d="m315.303 331.238-16.155 7.105h-67.101l-34.075-7.105c-14.438-5.578-23.959-19.462-23.959-34.94v-51.858-44.033h164.455l.792 44.033v51.858c.002 15.478-9.519 29.362-23.957 34.94z" fill="#ffe5c2"/></g><path d="m174.014 200.406v44.033 19.999h43.756c9.358 0 18.184-4.097 24.197-11.221l10.661-12.599h4.924l10.646 12.583c6.03 7.141 14.855 11.237 24.212 11.237h46.852v-19.999l-.792-44.033z" fill="#fed2a4"/><path d="m383.124 134.204 5.625-27.353c9.158-44.527-22.557-87.226-67.858-91.016-55.287-4.626-106.708-2.742-151.897 9.637-3.136.859-6.47-.35-8.352-3.002l-9.19-12.947c-1.607-2.265-4.794-2.7-6.95-.949-18.968 15.405-27.003 40.586-20.466 64.131l15.244 54.899 16.572 55.906h214.841z" fill="#a79ba7"/><g><path d="m343.33 102.578h-176.48c-11.598 0-22.624 2.471-32.607 6.884l5.038 18.143 16.572 55.906h214.841l12.431-49.307 3.875-18.839c-12.913-8.312-27.942-12.787-43.67-12.787z" fill="#918291"/><path d="m386.41 140.428c11.03 11.02 17.85 26.25 17.85 43.08 0 33.65-27.28 60.93-60.93 60.93h-50.92c-3.44 0-6.71-1.51-8.93-4.14l-12.43-14.69c-2.68-3.17-6.61-4.99-10.75-4.99h-10.42c-4.14 0-8.07 1.82-10.75 4.99l-12.43 14.69c-2.22 2.63-5.49 4.14-8.93 4.14h-50.92c-16.82 0-32.06-6.82-43.08-17.85-11.03-11.02-17.85-26.25-17.85-43.08 0-33.65 27.28-60.93 60.93-60.93h176.48c16.82 0 32.06 6.82 43.08 17.85z" fill="#a6e7f0"/></g><g><g><g id="XMLID_308_"><g><path d="m419.11 494.488v5.785c0 1.881-1.525 3.405-3.405 3.405h-320.23c-1.881 0-3.405-1.525-3.405-3.405v-5.715c0-11.74 7.33-22.24 18.36-26.27l84.09-30.78c5.82 3.17 11.84 6.01 18.08 8.46l27.31 10.73c5.23 2.06 10.73 3.08 16.22 3.08 5.5 0 10.99-1.02 16.23-3.08l27.31-10.73c6.23-2.45 12.26-5.29 18.07-8.46l83.1 30.74c10.98 4.06 18.27 14.53 18.27 26.24z" fill="#fd8087"/></g></g></g><path d="m314.895 318.089-3.3.471c-4.324.618-8.695-.764-11.878-3.756l-10.459-9.829c-8.295-7.796-20.957-8.607-30.179-1.934l-2.441 1.767-2.442-1.767c-9.222-6.674-21.884-5.863-30.179 1.934l-10.459 9.829c-3.183 2.991-7.553 4.373-11.878 3.756l-4.36-.623c-2.945-.42-5.11 2.695-3.69 5.309l9.303 17.121c9.176 16.888 31.751 20.714 45.979 7.791l7.726-7.018 7.726 7.018c14.228 12.922 36.802 9.097 45.979-7.791l8.791-16.179c1.631-3.004-.857-6.582-4.239-6.099z" fill="#a79ba7"/><g id="XMLID_310_"><g fill="#82aee3"><path d="m379.51 460.358-.93 43.32h-34.54v-56.14l.1-.26z"/><path d="m167.14 447.538v56.14h-34.54l-.87-43.19 35.41-12.96z"/></g></g></g><circle cx="338.469" cy="183.511" fill="#f9f7f8" r="35.432"/></g><g><path d="m403.442 461.213-78.2-28.926v-26.521c7.439-5.771 14.297-12.296 20.407-19.49 2.681-3.157 2.295-7.89-.862-10.572-3.156-2.682-7.89-2.295-10.571.862-12.954 15.253-29.643 27.182-48.262 34.498l-27.312 10.732c-1.618.636-3.4.636-5.019 0l-27.313-10.732c-22.863-8.983-42.259-24.461-56.093-44.76-13.833-20.298-21.146-44.012-21.146-68.576v-48.145c5.569 1.5 11.412 2.318 17.441 2.347v44.367c0 17.475 10.384 33.52 26.11 40.806l3.719 6.844c5.48 10.086 15.114 16.971 26.432 18.888 11.317 1.918 22.682-1.408 31.179-9.126l2.684-2.438 2.684 2.438c6.92 6.285 15.74 9.658 24.89 9.658 2.085 0 4.188-.175 6.289-.531 11.317-1.918 20.952-8.802 26.433-18.889l3.719-6.844c15.726-7.286 26.11-23.33 26.11-40.805v-44.445c5.687-.282 11.19-1.269 16.432-2.862v48.738c0 18.484-4.307 37.028-12.454 53.626-1.825 3.718-.291 8.212 3.428 10.037 1.063.522 2.189.769 3.299.769 2.771 0 5.436-1.542 6.738-4.197 9.152-18.644 13.989-39.473 13.989-60.236v-2.39h10.6c12.82 0 23.251-10.431 23.251-23.252v-30.226c0-8.491-6.246-15.531-14.38-16.818 8.832-11.526 14.096-25.922 14.096-41.531 0-19.325-8.065-36.791-20.991-49.247l5.328-25.903c2.557-12.438 2.297-24.94-.774-37.16-1.009-4.018-5.085-6.458-9.102-5.446-4.017 1.009-6.455 5.084-5.445 9.102 2.517 10.016 2.728 20.272.628 30.483l-3.893 18.928c-10.065-5.83-21.734-9.185-34.178-9.185h-137.994c-4.142 0-7.5 3.358-7.5 7.5s3.358 7.5 7.5 7.5h137.993c29.46 0 53.428 23.968 53.428 53.428s-23.968 53.428-53.428 53.428h-50.918c-1.24 0-2.411-.543-3.212-1.489l-12.43-14.69c-4.109-4.857-10.115-7.642-16.478-7.642h-10.411c-6.362 0-12.368 2.785-16.477 7.642l-12.43 14.69c-.801.946-1.971 1.489-3.211 1.489h-50.917c-29.46 0-53.428-23.968-53.428-53.428s23.968-53.428 53.428-53.428h6.529c4.142 0 7.5-3.358 7.5-7.5s-3.358-7.5-7.5-7.5h-6.529c-7.78 0-15.252 1.323-22.226 3.726l-13.358-48.11c-5.483-19.746.704-40.792 15.781-54.428l7.481 10.54c3.696 5.207 10.303 7.577 16.449 5.895 41.187-11.282 90.022-14.355 149.291-9.396 18.958 1.586 35.91 10.694 47.735 25.646 2.569 3.249 7.286 3.8 10.535 1.23 3.249-2.569 3.8-7.286 1.23-10.535-14.427-18.241-35.113-29.354-58.251-31.29-61.049-5.107-111.591-1.877-154.503 9.877-.089.022-.193-.021-.255-.109l-9.189-12.946c-1.962-2.764-5.013-4.612-8.371-5.07-3.356-.459-6.793.504-9.423 2.641-21.287 17.289-30.301 45.535-22.964 71.959l14.058 50.628c-19.458 12.079-32.448 33.633-32.448 58.171 0 15.677 5.312 30.128 14.212 41.679-7.701 1.639-13.497 8.488-13.497 16.67v30.227c0 12.821 10.431 23.252 23.252 23.252h11.686v2.39c0 27.59 8.213 54.225 23.75 77.024 8.131 11.93 17.986 22.361 29.201 31.056v26.46l-79.173 28.975c-13.926 5.096-23.283 18.484-23.283 33.314v9.122c0 4.142 3.358 7.5 7.5 7.5s7.5-3.358 7.5-7.5v-9.122c0-8.56 5.4-16.287 13.438-19.229l12.093-4.426v32.776c0 4.142 3.358 7.5 7.5 7.5s7.5-3.358 7.5-7.5v-38.266l19.536-7.149v45.415c0 4.142 3.358 7.5 7.5 7.5s7.5-3.358 7.5-7.5v-50.905l19.323-7.072c5.233 2.719 10.567 5.15 15.897 7.244l27.313 10.732c6.083 2.39 12.463 3.602 18.964 3.602s12.882-1.212 18.966-3.602l27.314-10.731c5.323-2.092 10.652-4.521 15.883-7.237l18.249 6.75v51.219c0 4.142 3.357 7.5 7.5 7.5s7.5-3.358 7.5-7.5v-45.67l19.536 7.226v38.444c0 4.142 3.357 7.5 7.5 7.5s7.5-3.358 7.5-7.5v-32.896l12.159 4.498c7.998 2.958 13.372 10.676 13.372 19.204v9.194c0 4.142 3.357 7.5 7.5 7.5s7.5-3.358 7.5-7.5v-9.194c0-14.775-9.31-28.147-23.169-33.273zm-99.689-124.427c-3.268 6.013-9.012 10.118-15.759 11.261-6.75 1.143-13.521-.84-18.588-5.44l-7.727-7.018c-2.859-2.598-7.225-2.599-10.084 0l-7.726 7.018c-5.065 4.601-11.839 6.585-18.588 5.44-6.747-1.143-12.491-5.248-15.758-11.26l-5.748-10.578c5.518-.006 10.826-2.091 14.919-5.938l10.458-9.829c5.666-5.325 14.348-5.88 20.646-1.323l2.441 1.767c2.622 1.898 6.169 1.899 8.793 0l2.441-1.767c6.298-4.558 14.981-4.001 20.646 1.322l10.459 9.831c4.095 3.847 9.401 5.932 14.919 5.938zm93.291-64.7c0 4.55-3.701 8.252-8.251 8.252h-10.6v-37.978c1.404-.835 2.774-1.72 4.111-2.651.387.062.781.103 1.185.103h11.507c1.129 0 2.048.918 2.048 2.048zm-164.616-26.947 12.43-14.69c1.253-1.481 3.085-2.331 5.026-2.331h10.411c1.941 0 3.773.85 5.026 2.331l12.43 14.69c3.657 4.322 9.002 6.8 14.663 6.8h39.348v44.358c0 7.055-2.553 13.748-6.887 19.015-2.55-3.481-6.747-5.26-11.041-4.648l-3.3.471c-2.084.298-4.151-.358-5.681-1.795l-10.459-9.83c-10.321-9.7-25.851-11.172-37.757-3.851-11.905-7.321-27.434-5.85-37.757 3.851l-10.458 9.829c-1.531 1.438-3.605 2.093-5.681 1.796l-4.361-.623c-4.026-.574-7.953 1.07-10.395 4.281-4.081-5.183-6.471-11.67-6.471-18.496v-44.358h36.251c5.662 0 11.007-2.479 14.663-6.8zm-110.041 35.199c-4.55 0-8.252-3.702-8.252-8.252v-30.226c0-1.129.918-2.048 2.048-2.048h11.507c.104 0 .204-.011.307-.016 1.956 1.354 3.979 2.616 6.075 3.765v36.777zm174.54 158.648-27.313 10.731c-8.657 3.401-18.304 3.401-26.96 0l-27.313-10.732c-4.456-1.751-8.918-3.769-13.316-6.008v-17.045c5.99 3.48 12.268 6.525 18.801 9.092l27.313 10.732c2.578 1.013 5.286 1.519 7.994 1.519s5.417-.506 7.995-1.519l27.312-10.732c6.498-2.553 12.785-5.607 18.803-9.117v17.07c-4.4 2.241-8.862 4.259-13.316 6.009z"/><path d="m233.938 170.148 10.656-8.133h20.993l10.657 8.133c1.358 1.037 2.957 1.539 4.544 1.539 2.259 0 4.492-1.016 5.968-2.95 2.513-3.293 1.881-7.999-1.412-10.512l-12.022-9.176c-1.717-1.311-3.852-2.033-6.012-2.033h-24.438c-2.157 0-4.289.72-6.008 2.031l-12.025 9.179c-3.293 2.513-3.925 7.22-1.412 10.512s7.218 3.922 10.511 1.41z"/><path d="m197.973 158.851h-49.449c-4.142 0-7.5 3.358-7.5 7.5s3.358 7.5 7.5 7.5h49.449c4.142 0 7.5-3.358 7.5-7.5s-3.358-7.5-7.5-7.5z"/><path d="m148.524 192.906c-4.142 0-7.5 3.358-7.5 7.5s3.358 7.5 7.5 7.5h3.319c4.142 0 7.5-3.358 7.5-7.5s-3.358-7.5-7.5-7.5z"/><path d="m179.746 192.906c-4.142 0-7.5 3.358-7.5 7.5s3.358 7.5 7.5 7.5h19.224c4.142 0 7.5-3.358 7.5-7.5s-3.358-7.5-7.5-7.5z"/><path d="m369.423 202.317c3.911 1.373 8.188-.687 9.56-4.595 1.605-4.576 2.419-9.357 2.419-14.211 0-23.673-19.26-42.932-42.933-42.932s-42.932 19.259-42.932 42.932 19.259 42.932 42.932 42.932c3.798 0 7.586-.505 11.26-1.502 3.997-1.084 6.359-5.204 5.274-9.202s-5.204-6.359-9.202-5.275c-2.394.649-4.86.979-7.332.979-15.401 0-27.932-12.53-27.932-27.932s12.53-27.932 27.932-27.932 27.933 12.53 27.933 27.932c0 3.159-.529 6.27-1.573 9.247-1.372 3.908.686 8.188 4.594 9.559z"/></g></g></svg>