<svg id="Capa_1" enable-background="new 0 0 494.875 494.875" height="512" viewBox="0 0 494.875 494.875" width="512" xmlns="http://www.w3.org/2000/svg"><g><g><path d="m354.28 265.614 52.41 15.423c6.535-2.4 13.603-3.697 20.979-3.662 21.94.105 41.297 12.224 51.673 30.126.01-.038.023-.073.033-.111l-.003-.016-19.732-242.242c-1.262-15.498-14.157-27.463-29.707-27.564l-10.523-.068c-16.569 0-30 13.431-30 30v135.099c0 8.812-5.768 16.585-14.201 19.141l-27.648 8.377s-.436.151-1.219.459l3.092 22.271c.636 4.581 2.292 8.951 4.846 12.767z" fill="#a9baca"/><path d="m67.184 277.376c7.37-.038 14.432 1.253 20.964 3.647l51.797-15.248c1.932-3.305 3.251-6.945 3.812-10.766l3.655-24.891-27.648-8.377c-8.433-2.555-14.201-10.329-14.201-19.141v-135.1c0-16.569-13.431-30-30-30l-10.524.068c-15.549.101-28.444 12.066-29.707 27.564l-19.731 242.243-.004.016c10.389-17.837 29.703-29.902 51.587-30.015z" fill="#a9baca"/><path d="m481.94 390.685-9.565-13.645c9.713-11.011 15.461-25.602 14.971-41.55-.985-32.091-27.572-57.961-59.677-58.115-7.376-.035-14.444 1.261-20.979 3.662l-52.41-15.423c.708 1.057 1.471 2.079 2.316 3.042 9.393 10.704 20.137 26.578 22.156 44.781l-40.143-6.062s5.961 30.021-36.222 49.876c-13.146 6.188-25.278 14.332-36.239 23.87l-18.68 16.255-18.705-16.251c-10.976-9.536-23.12-17.681-36.276-23.873-42.183-19.855-36.223-49.876-36.223-49.876l-40.142 6.062c1.928-17.376 11.747-32.632 20.754-43.295 1.156-1.368 2.172-2.836 3.068-4.368l-51.797 15.248c-6.531-2.394-13.594-3.685-20.964-3.647-32.054.165-58.607 25.961-59.651 57.999-.519 15.923 5.182 30.501 14.842 41.521l-9.173 12.668c-3.705 5.118-5.701 11.276-5.701 17.595v50.216h479.875v-49.469c0-6.163-1.897-12.175-5.435-17.221z" fill="#ffe1ba"/><path d="m481.94 390.685-9.565-13.645c9.713-11.011 15.461-25.603 14.971-41.55-.985-32.091-27.572-57.961-59.677-58.115-7.376-.035-14.444 1.261-20.979 3.662l-52.41-15.423c.708 1.057 1.471 2.079 2.316 3.042 5.406 6.161 11.252 14.042 15.632 23.087l35.155 10.345 6.202-2.278c4.401-1.617 9.042-2.436 13.791-2.436h.196c21.284.102 39.13 17.476 39.783 38.729.313 10.216-3.23 20.055-9.979 27.706l-10.421 11.813 18.607 26.543c1.186 1.69 1.812 3.675 1.812 5.74v49.47h20v-49.469c.001-6.163-1.896-12.175-5.434-17.221z" fill="#ff9d87"/><path d="m378.753 313.438c-2.019-18.203-12.764-34.077-22.156-44.781-3.896-4.44-6.35-9.959-7.162-15.81l-23.494-169.199c-11.503-61.21-147.503-61.21-157.028.048l-25.156 171.312c-.821 5.593-3.231 10.816-6.879 15.135-9.007 10.663-18.826 25.919-20.754 43.295l40.142-6.062s-5.961 30.021 36.223 49.876c13.155 6.192 25.3 14.337 36.276 23.873l18.705 16.251 18.68-16.255c10.961-9.538 23.093-17.682 36.239-23.87 42.183-19.855 36.222-49.876 36.222-49.876z" fill="#fff"/><path d="m378.753 313.438c-2.02-18.203-12.764-34.077-22.156-44.781-3.896-4.44-6.35-9.959-7.162-15.81l-23.494-169.199c-6.02-32.035-46.139-47.292-84.382-45.79 25.201 1.14 50.901 11.079 54.629 29.089l33.437 188.649c1.364 9.828 5.493 18.904 11.938 26.25 1.707 1.946 3.512 4.144 5.288 6.546l-35.909-5.423 7.959 27.979c.163 2.903-.468 16.645-25.03 28.206-14.399 6.778-28.144 15.821-40.851 26.877l-5.562 4.84-15.384 13.129 15.395 13.375 18.68-16.255c10.961-9.538 23.093-17.682 36.239-23.87 42.183-19.855 36.222-49.876 36.222-49.876z" fill="#a9baca"/><path d="m351.699 106.008s-9.609 9.152-42.41 5.785c-56.355-5.785-61.789 15.86-61.789 15.86s-5.558-21.645-61.914-15.86c-32.801 3.367-42.41-5.785-42.41-5.785s-8.422 43.483 47.481 48.462c25.832 2.301 43.765 7.561 56.781 20.523 13.016-12.962 30.949-18.222 56.781-20.523 55.902-4.979 47.48-48.462 47.48-48.462z" fill="#fff"/><path d="m349.22 107.641c-4.687 11.706-16.456 24.286-45.001 26.829-25.832 2.301-43.765 7.561-56.781 20.523-13.016-12.962-30.949-18.222-56.781-20.523-28.545-2.542-40.314-15.123-45.001-26.829-1.744-.937-2.479-1.633-2.479-1.633s-8.422 43.483 47.481 48.462c25.832 2.301 43.765 7.561 56.781 20.523 13.016-12.962 30.949-18.222 56.781-20.523 55.903-4.979 47.48-48.462 47.48-48.462s-.736.696-2.48 1.633z" fill="#a9baca"/><path d="m284.938 204.188c0-6.66-6.951-12.505-17.418-15.832-3.701-12.353-11.273-17.856-20.019-17.856-8.736 0-16.3 5.49-20.006 17.812-10.544 3.319-17.557 9.186-17.557 15.876 0 6.481 6.576 12.193 16.574 15.561 4.963 22.524 20.989 44.689 20.989 44.689s16.047-22.196 20.998-44.736c9.921-3.374 16.439-9.063 16.439-15.514z" fill="#fcad42"/></g><path d="m488.082 386.38-6.329-9.028c8.94-12.132 13.558-26.867 13.089-42.091-.325-10.6-3.139-20.798-8.113-29.935l-5.98-73.431-14.951 1.218 4.241 52.078c-11.977-9.834-26.799-15.24-42.335-15.315-7.246-.039-14.371 1.071-21.197 3.291l-16.382-4.821 6.432-1.661.716-.224c22.512-8.287 37.637-29.972 37.637-53.96v-130.063h-15v130.062c0 17.611-11.028 33.542-27.48 39.758l-30.344 7.835-2.873-.845c-1.179-2.29-1.984-4.794-2.35-7.433l-2.223-16.007 22.744-6.891c11.68-3.539 19.526-14.115 19.526-26.318v-135.099c0-12.407 10.094-22.5 22.451-22.5l10.523.068c11.748.076 21.326 8.964 22.28 20.673l12.416 152.435 14.951-1.218-12.415-152.435c-1.591-19.515-17.555-34.328-37.134-34.455l-10.572-.068c-20.678 0-37.5 16.822-37.5 37.5v135.099c0 5.547-3.567 10.354-8.876 11.963l-20.483 6.206-10.005-72.054c21.453-17.036 16.739-42.972 16.516-44.129l-2.441-15.44-9.986 11.311c-.651.447-3.662 2.299-10.302 3.506l-2.963-21.344-.058-.354c-3.12-16.598-14.161-30.32-31.931-39.684-28.927-15.242-72.257-16.46-103.027-2.897l6.049 13.726c26.497-11.677 65.181-10.628 89.986 2.442 9.432 4.97 21.258 14.034 24.149 29.017l4.915 35.413 7-.502c5.611-.402 10.159-1.24 13.801-2.24-1.032 6.685-4.349 15.297-13.833 21.434l-.144.093c-6.684 4.279-15.67 6.951-26.725 7.936-24.772 2.206-41.094 7.074-53.655 16.109-.788-.067-1.586-.108-2.398-.108-.85 0-1.682.048-2.506.121-12.562-9.043-28.889-13.915-53.672-16.122-11.353-1.011-20.519-3.798-27.254-8.278-9.2-6.118-12.437-14.597-13.454-21.189 3.586.985 8.051 1.813 13.544 2.223l6.964.52 5.201-35.427c1.514-9.734 6.981-18.065 16.253-24.759l-8.781-12.161c-12.463 8.999-20.172 20.969-22.304 34.679l-3.13 21.318c-6.512-1.208-9.477-3.029-10.124-3.473l-9.532-10.82-2.893 14.951c-.221 1.14-4.871 26.69 16.029 43.74l-10.587 72.092-19.317-5.853c-5.309-1.608-8.876-6.416-8.876-11.963v-135.102c0-20.678-16.822-37.5-37.549-37.5l-10.521.068c-19.581.127-35.545 14.94-37.134 34.455l-19.596 240.587c-5.026 9.153-7.877 19.383-8.224 30.02-.494 15.169 4.062 29.864 12.918 41.988l-5.826 8.046c-4.663 6.439-7.128 14.045-7.128 21.995v57.716h494.875v-56.97c0-7.742-2.348-15.186-6.793-21.525zm-254.549-192.106 1.144-3.802c2.488-8.276 6.804-12.472 12.823-12.472 6.029 0 10.348 4.208 12.835 12.509l1.138 3.794 3.775 1.2c8.88 2.822 12.189 6.824 12.189 8.684 0 2.207-3.979 5.906-11.354 8.414l-4.004 1.361-.907 4.13c-2.658 12.101-8.909 24.322-13.673 32.428-4.759-8.097-11.002-20.299-13.665-32.386l-.912-4.14-4.018-1.354c-7.448-2.509-11.468-6.228-11.468-8.453 0-1.875 3.342-5.9 12.309-8.722zm-67.724-37.816c6.988 2.829 15.074 4.67 24.184 5.481 17.066 1.52 29.354 4.311 38.81 8.949-2.945 3.046-5.382 6.925-7.208 11.555-8.591 3.373-14.638 8.379-17.422 14.245h-16.61v15h16.559c2.589 5.561 8.101 10.299 16.05 13.673 6.039 22.262 20.599 42.568 21.251 43.471l6.078 8.406 6.078-8.407c.653-.904 15.237-21.247 21.267-43.532 7.87-3.371 13.333-8.086 15.908-13.612h16.685v-15h-16.737c-2.769-5.83-8.763-10.813-17.272-14.185-1.836-4.677-4.294-8.591-7.269-11.656 9.445-4.612 21.709-7.391 38.723-8.906 8.866-.79 16.766-2.555 23.626-5.258l13.496 97.197c1.027 7.4 4.124 14.22 8.953 19.725 6.582 7.501 14.414 18.35 18.259 30.81l-40.043-6.047 2.079 10.47c.048.243 4.397 24.469-32.06 41.629-13.354 6.286-26.129 14.696-37.969 24.998l-13.76 11.974-13.782-11.975c-11.854-10.297-24.639-18.708-38-24.997-35.89-16.892-32.218-40.711-32.061-41.629l2.079-10.47-40.048 6.048c3.651-11.877 10.878-22.239 16.953-29.431 4.591-5.435 7.554-11.965 8.57-18.884zm-123.001-90.718c.953-11.709 10.531-20.596 22.28-20.672l10.475-.068c12.406 0 22.5 10.093 22.5 22.5v135.099c0 12.203 7.847 22.78 19.526 26.318l21.463 6.503-2.717 18.498c-.281 1.917-.827 3.785-1.595 5.57l-1.961.577-30.234-7.807c-16.453-6.216-27.482-22.147-27.482-39.758v-130.062h-15v130.062c0 23.989 15.125 45.674 37.638 53.96l.353.13 6.692 1.728-16.417 4.833c-6.822-2.211-13.928-3.309-21.183-3.275-15.479.08-30.252 5.454-42.205 15.226zm437.067 384.135h-72.914l12.568-50.695-14.559-3.609-13.463 54.305h-288.389l-13.463-54.306-14.559 3.609 12.568 50.695h-72.664v-42.716c0-4.77 1.479-9.333 4.276-13.197l12.682-17.512-3.943-4.498c-8.81-10.051-13.422-22.954-12.986-36.333.908-27.836 24.322-50.6 52.194-50.743.093 0 .186-.001.279-.001 6.213 0 12.289 1.073 18.064 3.189l2.324.852 33.14-9.755c-5.862 9.42-10.965 20.86-12.362 33.45l-1.076 9.701 41.151-6.215c1.352 12.24 8.715 32.956 40.55 47.94 12.114 5.702 23.738 13.356 34.551 22.749l21.173 18.396-118.445 14.752 1.854 14.885 119.011-14.822 119.011 14.822 1.854-14.885-118.387-14.745 21.156-18.41c10.796-9.393 22.406-17.044 34.511-22.742 31.834-14.984 39.197-35.7 40.549-47.94l41.151 6.215-1.076-9.701c-1.39-12.529-6.455-23.935-12.398-33.432l33.142 9.753 2.326-.854c5.865-2.154 12.064-3.237 18.356-3.202 27.937.134 51.36 22.943 52.218 50.845.412 13.403-4.24 26.315-13.099 36.358l-3.908 4.43 12.956 18.481c2.667 3.804 4.076 8.27 4.076 12.916z"/></g></svg>