<svg height="512pt" viewBox="-42 0 512 512.001" width="512pt" xmlns="http://www.w3.org/2000/svg"><path d="m414.269531 133.921875-200.996093 125.007813-199.117188-123.925782 200.996094-126.144531zm0 0" fill="#5d6468"/><path d="m324.742188 152.898438v36.699218l-111.46875 69.332032-108.59375-67.589844v-38.441406c0-33.148438 26.871093-60.015626 60.019531-60.015626h100.027343c33.144532 0 60.015626 26.867188 60.015626 60.015626zm0 0" fill="#40484f"/><path d="m54.667969 512v-69.019531c0-88.390625 71.65625-160.046875 160.042969-160.046875 88.390624 0 160.046874 71.65625 160.046874 160.046875v69.019531zm0 0" fill="#5d6468"/><path d="m310.914062 315.070312-96.195312 59.890626-97.199219-59.128907c-16.25 12.441407-30.042969 27.921875-40.53125 45.59375l138.09375 84.007813 136.703125-85.109375c-10.621094-17.578125-24.53125-32.945313-40.871094-45.253907zm0 0" fill="#ffde55"/><path d="m279.730469 122.890625h-130.035157c-8.289062 0-15.003906 6.71875-15.003906 15.003906v47.011719h160.042969v-47.011719c0-8.285156-6.71875-15.003906-15.003906-15.003906zm0 0" fill="#5d6468"/><path d="m290.292969 301.878906c-22.511719-12.082031-48.242188-18.945312-75.582031-18.945312-27.335938 0-53.066407 6.863281-75.578126 18.945312 19.726563 18.671875 46.339844 30.140625 75.578126 30.140625 29.242187 0 55.855468-11.46875 75.582031-30.140625zm0 0" fill="#40484f"/><path d="m134.691406 184.90625v37.082031c0 44.195313 35.824219 80.023438 80.019532 80.023438 44.195312 0 80.023437-35.828125 80.023437-80.023438v-37.082031zm0 0" fill="#fad4c6"/><path d="m134.691406 184.90625v30.007812h160.042969v-30.007812zm0 0" fill="#fab9a7"/><g fill="#fff"><path d="m74.742188 128.527344 15.003906 9.335937-7.925782 12.738281-15.003906-9.335937zm0 0"/><path d="m191.125 68.226562-7.980469-12.707031 32-20.089843 31.976563 20.089843-7.980469 12.707031-24-15.078124zm0 0"/><path d="m332.726562 109.292969 28.90625 18.15625-7.980468 12.707031-28.90625-18.15625zm0 0"/><path d="m146.125 447.390625-32.476562-19.757813 7.800781-12.816406 32.472656 19.753906zm-45.292969-27.554687-13.054687-7.9375 7.800781-12.820313 13.050781 7.941406zm0 0"/><path d="m271.261719 436.949219 7.929687 12.738281-15.003906 9.339844-7.929688-12.738282zm0 0"/><path d="m335.777344 396.78125 7.929687 12.738281-28.007812 17.433594-7.929688-12.734375zm0 0"/></g><path d="m393.261719 230.921875h15.003906v18.003906h-15.003906zm0 0"/><path d="m323.242188 451.984375h15.003906v60.015625h-15.003906zm0 0"/><path d="m91.175781 451.984375h15.003907v60.015625h-15.003907zm0 0"/><path d="m428.425781 133.957031-94.257812-59.203125-7.980469 12.707032 73.925781 46.433593-97.878906 60.871094v-56.871094h-15.003906v39.511719h-145.039063v-39.511719h-15.003906v58.617188l-60.6875-37.769531-7.929688 12.738281 68.617188 42.703125v7.804687c0 25.382813 10.867188 48.273438 28.1875 64.277344-28.925781 11.003906-54.726562 30.117187-73.683594 54.828125-22.589844 29.445312-34.527344 64.679688-34.527344 101.886719v69.019531h15.003907v-69.019531c0-25.324219 6.339843-49.597657 17.671875-71.039063l70.160156 42.679688 7.796875-12.816406-70.308594-42.773438c8.4375-12.777344 18.761719-24.277344 30.636719-34.046875l96.636719 58.785156 95.566406-59.5c11.917969 9.632813 22.382813 21.019531 30.972656 33.742188l-126.265625 78.613281-44.417968-27.023438-7.796876 12.820313 52.304688 31.820313 133.957031-83.398438c4.9375 9.128906 8.976563 18.789062 11.953125 28.875l14.390625-4.246094c-7.957031-26.953125-22.777343-51.707031-42.859375-71.582031-16.691406-16.519531-36.714844-29.347656-58.519531-37.621094 17.320313-16.003906 28.1875-38.894531 28.1875-64.28125v-9.554687l91.027344-56.613282v60.09375h15.003906v-69.421874zm-131.210937 180.804688-82.542969 51.390625-83.492187-50.792969c11.796874-7.761719 24.78125-13.953125 38.699218-18.226563 13.121094 7.855469 28.457032 12.378907 44.832032 12.378907 16.367187 0 31.695312-4.515625 44.8125-12.367188 13.410156 4.121094 26.078124 10.09375 37.691406 17.617188zm-82.503906-20.253907c-39.988282 0-72.519532-32.53125-72.519532-72.519531v-29.578125h145.042969v29.578125c0 39.988281-32.535156 72.519531-72.523437 72.519531zm0 0"/><path d="m28.308594 134.972656 186.839844-117.257812 98.332031 61.765625 7.980469-12.707031-106.308594-66.773438-215.152344 135.027344 45.835938 28.527344 7.925781-12.738282zm0 0"/><path d="m364.433594 413.605469c1.871094 9.613281 2.820312 19.496093 2.820312 29.375v69.019531h15.003906v-69.019531c0-10.839844-1.042968-21.691407-3.101562-32.246094zm0 0"/></svg>