<svg id="Capa_1" enable-background="new 0 0 512 512" height="512" viewBox="0 0 512 512" width="512" xmlns="http://www.w3.org/2000/svg"><g><g><g clip-rule="evenodd" fill-rule="evenodd"><path d="m276.271 504.5v-137.937l-24.536-31.393h-47.045l-62.804 68.931-62.805-68.931h-47.045l-24.536 31.393v137.937z" fill="#bcdeb7"/><path d="m79.081 335.17 62.805 68.931 62.804-68.931h-21.909l-81.798.001z" fill="#bcdeb7"/><path d="m69.008 226.382v28.207l46.481 50.315h51.861l46.481-50.315v-56.414c-39.873 0-79.746 0-119.62 0z" fill="#fff3e3"/><path d="m141.42 125.304c-39.87.253-72.412 32.943-72.412 72.871v28.207l25.204-28.207h119.62c-.001-39.928-32.543-72.618-72.412-72.871z" fill="#e4e8ed"/><path d="m100.983 289.202v45.969l81.798-.001v-46.97l-15.431 16.704h-51.861z" fill="#fff3e3"/><path d="m69.008 226.382v28.207l46.481 50.315h30l-46.482-50.315v-56.414h-4.795z" fill="#fee1bc"/><path d="m69.008 198.175v28.207l25.204-28.207h4.795c0-34.78 24.693-64.064 57.412-71.205-44.671-9.749-87.411 25.343-87.411 71.205z" fill="#9c9c9f"/><path d="m100.983 289.202v45.969h30v-30.267h-15.494z" fill="#fee1bc"/><path d="m62.036 335.17h-30l-24.536 31.393v137.937h30v-137.937z" fill="#75c270"/><path d="m262.667 24.568.023 210.06 44.935-26.054h179.807l17.068-17.07v-166.936l-17.068-17.068c-69.232 0-138.465 0-207.697 0z" fill="#cddcf1"/><path d="m262.667 24.568.023 210.06 29.998-17.393-.021-192.667 17.068-17.068h-30z" fill="#6c90c9"/></g><g><path d="m459.5 169.004h15v15h-15z" fill="#fff"/></g><g><path d="m292.666 32.068h15v15h-15z" fill="#fff"/></g></g><g><path d="m134.386 437h15v15h-15z"/><path d="m268.771 497h-37.5v-14.529h-15v14.529h-66.885v-30h-15v30h-41.366v15h190.751v-85.437h-15z"/><path d="m190.281 327.67v-36.536l31.05-33.611v-59.348c0-44.038-35.827-80.092-79.959-80.371-44.037.279-79.864 36.333-79.864 80.371v59.348l31.976 34.613v35.534h-65.105l-28.379 36.31v148.02h78.021v-15h-10.521v-98.102h-15v98.102h-37.5v-127.854l20.693-26.477h40.075l58.618 64.335v14.996h15v-14.995l58.618-64.336h40.074l20.693 26.477v42.416h15v-47.582l-28.379-36.311h-65.111zm-113.773-98.425 21.061-23.57h12.318v-15h-19.032l-14.348 16.057v-8.557c0-35.819 29.141-65.145 64.864-65.372 33.281.211 60.782 25.549 64.513 57.872h-79.298v15h79.744v45.979l-42.264 45.75h-45.296l-42.264-45.75v-22.409zm31.975 79.128 3.724 4.031h58.425l4.649-5.033v20.299h-66.798zm33.403 84.592-45.825-50.295h91.65z"/><path d="m216.271 398.898h15v61.542h-15z"/><path d="m490.538 0h-31.313v15h25.1l12.675 12.675v160.723l-12.675 12.676h-178.717l-35.42 20.537-.003-37.607-15 .002.007 63.639 54.45-31.571h180.896l21.462-21.463v-173.149z"/><path d="m270.183 169.003-.016-141.328 12.675-12.675h161.382v-15h-167.595l-21.462 21.462.016 147.543z"/><path d="m373.006 165h15v15h-15z"/><path d="m388.006 133.49 29.349-6.655 18.729-18.728v-51.214l-19.394-19.393h-66.213l-19.393 19.393v40.607h15v-34.394l10.605-10.606h53.789l10.606 10.606v38.788l-11.271 11.271-36.807 8.345v28.49h15z"/></g></g></svg>